<svg width="330" height="331" viewBox="0 0 330 331" fill="none" xmlns="http://www.w3.org/2000/svg">
<g opacity="0.8">
<g style="mix-blend-mode:color-burn">
<path d="M49 103.991C49 98.4677 53.4772 94 59 94H264C269.523 94 274 98.4772 274 104V225.303C274 228.289 272.681 231.149 270.28 232.924C206.863 279.827 84.8434 242.363 55.4738 232.319C51.5428 230.975 49 227.278 49 223.124C49 193.076 49 128.743 49 103.991Z" fill="#032333" fill-opacity="0.88"/>
</g>
<path d="M167.513 168.698C167.513 172.019 167.073 175.225 166.195 178.318C165.348 181.377 164.144 184.258 162.581 186.96C161.019 189.629 159.131 192.071 156.917 194.284C154.704 196.498 152.262 198.402 149.593 199.997C146.924 201.56 144.043 202.764 140.95 203.611C137.858 204.489 134.652 204.929 131.331 204.929C128.011 204.929 124.805 204.489 121.712 203.611C118.652 202.764 115.771 201.56 113.07 199.997C110.4 198.402 107.959 196.498 105.745 194.284C103.532 192.071 101.628 189.629 100.032 186.96C98.47 184.258 97.2493 181.377 96.3704 178.318C95.524 175.225 95.1008 172.019 95.1008 168.698C95.1008 165.378 95.524 162.172 96.3704 159.079C97.2493 155.987 98.47 153.106 100.032 150.437C101.628 147.767 103.532 145.326 105.745 143.113C107.959 140.899 110.4 139.011 113.07 137.448C115.771 135.886 118.652 134.682 121.712 133.835C124.805 132.956 128.011 132.517 131.331 132.517C134.652 132.517 137.858 132.956 140.95 133.835C144.043 134.682 146.924 135.886 149.593 137.448C152.262 139.011 154.704 140.899 156.917 143.113C159.131 145.326 161.019 147.767 162.581 150.437C164.144 153.106 165.348 155.987 166.195 159.079C167.073 162.172 167.513 165.378 167.513 168.698ZM153.597 168.698C153.597 165.639 153.011 162.758 151.839 160.056C150.667 157.322 149.072 154.961 147.054 152.976C145.068 150.958 142.708 149.363 139.974 148.191C137.272 147.019 134.391 146.433 131.331 146.433C128.239 146.433 125.342 147.019 122.64 148.191C119.938 149.363 117.578 150.958 115.56 152.976C113.542 154.961 111.947 157.322 110.775 160.056C109.603 162.758 109.017 165.639 109.017 168.698C109.017 171.758 109.603 174.639 110.775 177.341C111.947 180.01 113.542 182.354 115.56 184.372C117.578 186.391 119.938 187.986 122.64 189.157C125.342 190.329 128.239 190.915 131.331 190.915C134.391 190.915 137.272 190.329 139.974 189.157C142.708 187.986 145.068 186.391 147.054 184.372C149.072 182.354 150.667 180.01 151.839 177.341C153.011 174.639 153.597 171.758 153.597 168.698Z" fill="white" fill-opacity="0.8"/>
<path d="M243.513 168.698C243.513 172.019 243.073 175.225 242.195 178.318C241.348 181.377 240.144 184.258 238.581 186.96C237.019 189.629 235.131 192.071 232.917 194.284C230.704 196.498 228.262 198.402 225.593 199.997C222.924 201.56 220.043 202.764 216.95 203.611C213.858 204.489 210.652 204.929 207.331 204.929C204.011 204.929 200.805 204.489 197.712 203.611C194.652 202.764 191.771 201.56 189.07 199.997C186.4 198.402 183.959 196.498 181.745 194.284C179.532 192.071 177.628 189.629 176.032 186.96C174.47 184.258 173.249 181.377 172.37 178.318C171.524 175.225 171.101 172.019 171.101 168.698C171.101 165.378 171.524 162.172 172.37 159.079C173.249 155.987 174.47 153.106 176.032 150.437C177.628 147.767 179.532 145.326 181.745 143.113C183.959 140.899 186.4 139.011 189.07 137.448C191.771 135.886 194.652 134.682 197.712 133.835C200.805 132.956 204.011 132.517 207.331 132.517C210.652 132.517 213.858 132.956 216.95 133.835C220.043 134.682 222.924 135.886 225.593 137.448C228.262 139.011 230.704 140.899 232.917 143.113C235.131 145.326 237.019 147.767 238.581 150.437C240.144 153.106 241.348 155.987 242.195 159.079C243.073 162.172 243.513 165.378 243.513 168.698ZM229.597 168.698C229.597 165.639 229.011 162.758 227.839 160.056C226.667 157.322 225.072 154.961 223.054 152.976C221.068 150.958 218.708 149.363 215.974 148.191C213.272 147.019 210.391 146.433 207.331 146.433C204.239 146.433 201.342 147.019 198.64 148.191C195.938 149.363 193.578 150.958 191.56 152.976C189.542 154.961 187.947 157.322 186.775 160.056C185.603 162.758 185.017 165.639 185.017 168.698C185.017 171.758 185.603 174.639 186.775 177.341C187.947 180.01 189.542 182.354 191.56 184.372C193.578 186.391 195.938 187.986 198.64 189.157C201.342 190.329 204.239 190.915 207.331 190.915C210.391 190.915 213.272 190.329 215.974 189.157C218.708 187.986 221.068 186.391 223.054 184.372C225.072 182.354 226.667 180.01 227.839 177.341C229.011 174.639 229.597 171.758 229.597 168.698Z" fill="white" fill-opacity="0.8"/>
<g  fill="#223B45" fill-opacity="0.97">
<path d="M119.698 133.244V133.244C134.331 121.921 155.372 124.605 166.694 139.238L217.15 204.446V204.446C202.517 215.769 181.477 213.085 170.155 198.452L119.698 133.244Z"/>
</g>
</g>
<g opacity="0.8">
<g style="mix-blend-mode:color-burn">
<path d="M55 108.991C55 103.468 59.4772 99 65 99H270C275.523 99 280 103.477 280 109V230.303C280 233.289 278.681 236.149 276.28 237.924C212.863 284.827 90.8434 247.363 61.4738 237.319C57.5428 235.975 55 232.278 55 228.124C55 198.076 55 133.743 55 108.991Z" fill="#032333" fill-opacity="0.88"/>
</g>
<path d="M173.513 173.698C173.513 177.019 173.073 180.225 172.195 183.318C171.348 186.377 170.144 189.258 168.581 191.96C167.019 194.629 165.131 197.071 162.917 199.284C160.704 201.498 158.262 203.402 155.593 204.997C152.924 206.56 150.043 207.764 146.95 208.611C143.858 209.489 140.652 209.929 137.331 209.929C134.011 209.929 130.805 209.489 127.712 208.611C124.652 207.764 121.771 206.56 119.07 204.997C116.4 203.402 113.959 201.498 111.745 199.284C109.532 197.071 107.628 194.629 106.032 191.96C104.47 189.258 103.249 186.377 102.37 183.318C101.524 180.225 101.101 177.019 101.101 173.698C101.101 170.378 101.524 167.172 102.37 164.079C103.249 160.987 104.47 158.106 106.032 155.437C107.628 152.767 109.532 150.326 111.745 148.113C113.959 145.899 116.4 144.011 119.07 142.448C121.771 140.886 124.652 139.682 127.712 138.835C130.805 137.956 134.011 137.517 137.331 137.517C140.652 137.517 143.858 137.956 146.95 138.835C150.043 139.682 152.924 140.886 155.593 142.448C158.262 144.011 160.704 145.899 162.917 148.113C165.131 150.326 167.019 152.767 168.581 155.437C170.144 158.106 171.348 160.987 172.195 164.079C173.073 167.172 173.513 170.378 173.513 173.698ZM159.597 173.698C159.597 170.639 159.011 167.758 157.839 165.056C156.667 162.322 155.072 159.961 153.054 157.976C151.068 155.958 148.708 154.363 145.974 153.191C143.272 152.019 140.391 151.433 137.331 151.433C134.239 151.433 131.342 152.019 128.64 153.191C125.938 154.363 123.578 155.958 121.56 157.976C119.542 159.961 117.947 162.322 116.775 165.056C115.603 167.758 115.017 170.639 115.017 173.698C115.017 176.758 115.603 179.639 116.775 182.341C117.947 185.01 119.542 187.354 121.56 189.372C123.578 191.391 125.938 192.986 128.64 194.157C131.342 195.329 134.239 195.915 137.331 195.915C140.391 195.915 143.272 195.329 145.974 194.157C148.708 192.986 151.068 191.391 153.054 189.372C155.072 187.354 156.667 185.01 157.839 182.341C159.011 179.639 159.597 176.758 159.597 173.698Z" fill="white" fill-opacity="0.8"/>
<path d="M249.513 173.698C249.513 177.019 249.073 180.225 248.195 183.318C247.348 186.377 246.144 189.258 244.581 191.96C243.019 194.629 241.131 197.071 238.917 199.284C236.704 201.498 234.262 203.402 231.593 204.997C228.924 206.56 226.043 207.764 222.95 208.611C219.858 209.489 216.652 209.929 213.331 209.929C210.011 209.929 206.805 209.489 203.712 208.611C200.652 207.764 197.771 206.56 195.07 204.997C192.4 203.402 189.959 201.498 187.745 199.284C185.532 197.071 183.628 194.629 182.032 191.96C180.47 189.258 179.249 186.377 178.37 183.318C177.524 180.225 177.101 177.019 177.101 173.698C177.101 170.378 177.524 167.172 178.37 164.079C179.249 160.987 180.47 158.106 182.032 155.437C183.628 152.767 185.532 150.326 187.745 148.113C189.959 145.899 192.4 144.011 195.07 142.448C197.771 140.886 200.652 139.682 203.712 138.835C206.805 137.956 210.011 137.517 213.331 137.517C216.652 137.517 219.858 137.956 222.95 138.835C226.043 139.682 228.924 140.886 231.593 142.448C234.262 144.011 236.704 145.899 238.917 148.113C241.131 150.326 243.019 152.767 244.581 155.437C246.144 158.106 247.348 160.987 248.195 164.079C249.073 167.172 249.513 170.378 249.513 173.698ZM235.597 173.698C235.597 170.639 235.011 167.758 233.839 165.056C232.667 162.322 231.072 159.961 229.054 157.976C227.068 155.958 224.708 154.363 221.974 153.191C219.272 152.019 216.391 151.433 213.331 151.433C210.239 151.433 207.342 152.019 204.64 153.191C201.938 154.363 199.578 155.958 197.56 157.976C195.542 159.961 193.947 162.322 192.775 165.056C191.603 167.758 191.017 170.639 191.017 173.698C191.017 176.758 191.603 179.639 192.775 182.341C193.947 185.01 195.542 187.354 197.56 189.372C199.578 191.391 201.938 192.986 204.64 194.157C207.342 195.329 210.239 195.915 213.331 195.915C216.391 195.915 219.272 195.329 221.974 194.157C224.708 192.986 227.068 191.391 229.054 189.372C231.072 187.354 232.667 185.01 233.839 182.341C235.011 179.639 235.597 176.758 235.597 173.698Z" fill="white" fill-opacity="0.8"/>
<g fill="#223B45" fill-opacity="0.97">
<path d="M125.698 138.244V138.244C140.331 126.921 161.372 129.605 172.694 144.238L223.15 209.446V209.446C208.517 220.769 187.477 218.085 176.155 203.452L125.698 138.244Z" />
</g>
</g>
<ellipse cx="165" cy="165.5" rx="165" ry="165.5" fill="#032333" fill-opacity="0.01"/>
<ellipse cx="165" cy="166.5" rx="154" ry="154.5" fill="#032333" fill-opacity="0.14"/>

</svg>
