<svg width="225" height="179" viewBox="0 0 225 179" fill="none" xmlns="http://www.w3.org/2000/svg">
<g opacity="0.8">
<g style="mix-blend-mode:color-burn">
<path d="M5.47533e-07 9.99055C6.16695e-07 4.4677 4.47715 0 10 0H215C220.523 0 225 4.47715 225 10V131.303C225 134.289 223.681 137.149 221.28 138.924C157.863 185.827 35.8434 148.363 6.47381 138.319C2.54283 136.975 5.43776e-07 133.278 4.23962e-07 129.124C-4.42608e-07 99.0758 2.37559e-07 34.7431 5.47533e-07 9.99055Z" fill="#032333" fill-opacity="0.88"/>
</g>
<path d="M118.513 74.6985C118.513 78.0188 118.073 81.2251 117.195 84.3176C116.348 87.3775 115.144 90.2584 113.581 92.9602C112.019 95.6294 110.131 98.0709 107.917 100.284C105.704 102.498 103.262 104.402 100.593 105.997C97.9237 107.56 95.0429 108.764 91.9504 109.611C88.858 110.489 85.6516 110.929 82.3313 110.929C79.011 110.929 75.8046 110.489 72.7122 109.611C69.6523 108.764 66.7714 107.56 64.0696 105.997C61.4003 104.402 58.9589 102.498 56.7454 100.284C54.5318 98.0709 52.6275 95.6294 51.0325 92.9602C49.47 90.2584 48.2493 87.3775 47.3704 84.3176C46.524 81.2251 46.1008 78.0188 46.1008 74.6985C46.1008 71.3781 46.524 68.1718 47.3704 65.0793C48.2493 61.9869 49.47 59.106 51.0325 56.4367C52.6275 53.7675 54.5318 51.3261 56.7454 49.1125C58.9589 46.899 61.4003 45.011 64.0696 43.4485C66.7714 41.886 69.6523 40.6815 72.7122 39.8352C75.8046 38.9563 79.011 38.5168 82.3313 38.5168C85.6516 38.5168 88.858 38.9563 91.9504 39.8352C95.0429 40.6815 97.9237 41.886 100.593 43.4485C103.262 45.011 105.704 46.899 107.917 49.1125C110.131 51.3261 112.019 53.7675 113.581 56.4367C115.144 59.106 116.348 61.9869 117.195 65.0793C118.073 68.1718 118.513 71.3781 118.513 74.6985ZM104.597 74.6985C104.597 71.6386 104.011 68.7577 102.839 66.0559C101.667 63.3215 100.072 60.9615 98.054 58.9758C96.0683 56.9576 93.7083 55.3625 90.9739 54.1906C88.2721 53.0188 85.3912 52.4328 82.3313 52.4328C79.2389 52.4328 76.3417 53.0188 73.6399 54.1906C70.9381 55.3625 68.578 56.9576 66.5598 58.9758C64.5416 60.9615 62.9465 63.3215 61.7747 66.0559C60.6028 68.7577 60.0168 71.6386 60.0168 74.6985C60.0168 77.7584 60.6028 80.6392 61.7747 83.341C62.9465 86.0103 64.5416 88.3541 66.5598 90.3723C68.578 92.3905 70.9381 93.9856 73.6399 95.1574C76.3417 96.3293 79.2389 96.9153 82.3313 96.9153C85.3912 96.9153 88.2721 96.3293 90.9739 95.1574C93.7083 93.9856 96.0683 92.3905 98.054 90.3723C100.072 88.3541 101.667 86.0103 102.839 83.341C104.011 80.6392 104.597 77.7584 104.597 74.6985Z" fill="white" fill-opacity="0.8"/>
<path d="M194.513 74.6985C194.513 78.0188 194.073 81.2251 193.195 84.3176C192.348 87.3775 191.144 90.2584 189.581 92.9602C188.019 95.6294 186.131 98.0709 183.917 100.284C181.704 102.498 179.262 104.402 176.593 105.997C173.924 107.56 171.043 108.764 167.95 109.611C164.858 110.489 161.652 110.929 158.331 110.929C155.011 110.929 151.805 110.489 148.712 109.611C145.652 108.764 142.771 107.56 140.07 105.997C137.4 104.402 134.959 102.498 132.745 100.284C130.532 98.0709 128.628 95.6294 127.032 92.9602C125.47 90.2584 124.249 87.3775 123.37 84.3176C122.524 81.2251 122.101 78.0188 122.101 74.6985C122.101 71.3781 122.524 68.1718 123.37 65.0793C124.249 61.9869 125.47 59.106 127.032 56.4367C128.628 53.7675 130.532 51.3261 132.745 49.1125C134.959 46.899 137.4 45.011 140.07 43.4485C142.771 41.886 145.652 40.6815 148.712 39.8352C151.805 38.9563 155.011 38.5168 158.331 38.5168C161.652 38.5168 164.858 38.9563 167.95 39.8352C171.043 40.6815 173.924 41.886 176.593 43.4485C179.262 45.011 181.704 46.899 183.917 49.1125C186.131 51.3261 188.019 53.7675 189.581 56.4367C191.144 59.106 192.348 61.9869 193.195 65.0793C194.073 68.1718 194.513 71.3781 194.513 74.6985ZM180.597 74.6985C180.597 71.6386 180.011 68.7577 178.839 66.0559C177.667 63.3215 176.072 60.9615 174.054 58.9758C172.068 56.9576 169.708 55.3625 166.974 54.1906C164.272 53.0188 161.391 52.4328 158.331 52.4328C155.239 52.4328 152.342 53.0188 149.64 54.1906C146.938 55.3625 144.578 56.9576 142.56 58.9758C140.542 60.9615 138.947 63.3215 137.775 66.0559C136.603 68.7577 136.017 71.6386 136.017 74.6985C136.017 77.7584 136.603 80.6392 137.775 83.341C138.947 86.0103 140.542 88.3541 142.56 90.3723C144.578 92.3905 146.938 93.9856 149.64 95.1574C152.342 96.3293 155.239 96.9153 158.331 96.9153C161.391 96.9153 164.272 96.3293 166.974 95.1574C169.708 93.9856 172.068 92.3905 174.054 90.3723C176.072 88.3541 177.667 86.0103 178.839 83.341C180.011 80.6392 180.597 77.7584 180.597 74.6985Z" fill="white" fill-opacity="0.8"/>
<g filter="url(#filter0_b)">
<path d="M70.6983 39.2437C85.3309 27.9215 106.372 30.6051 117.694 45.2377L168.15 110.446C153.517 121.769 132.477 119.085 121.155 104.452L70.6983 39.2437Z" fill="#223B45" fill-opacity="0.97"/>
</g>
</g>
<defs>
<filter id="filter0_b" x="66.6983" y="28.2368" width="105.452" height="93.2164" filterUnits="userSpaceOnUse" color-interpolation-filters="sRGB">
<feFlood flood-opacity="0" result="BackgroundImageFix"/>
<feGaussianBlur in="BackgroundImage" stdDeviation="2"/>
<feComposite in2="SourceAlpha" operator="in" result="effect1_backgroundBlur"/>
<feBlend mode="normal" in="SourceGraphic" in2="effect1_backgroundBlur" result="shape"/>
</filter>
</defs>
</svg>
