<svg width="270" height="266" viewBox="0 0 270 266" fill="none" xmlns="http://www.w3.org/2000/svg">
<path d="M135 259C205.692 259 263 202.588 263 133C263 63.4121 205.692 7 135 7C64.3075 7 7 63.4121 7 133C7 202.588 64.3075 259 135 259Z" fill="black" stroke="black" stroke-width="14"/>
<path d="M97.27 134.1C86.7833 134.1 78.57 131.57 72.63 126.51C66.7633 121.377 63.6467 113.97 63.28 104.29C63.2067 102.31 63.17 99.0833 63.17 94.61C63.17 90.0633 63.2067 86.7633 63.28 84.71C63.6467 75.1767 66.8367 67.8433 72.85 62.71C78.8633 57.5033 87.0033 54.9 97.27 54.9C103.723 54.9 109.517 56 114.65 58.2C119.783 60.3267 123.817 63.4067 126.75 67.44C129.757 71.4 131.297 76.0567 131.37 81.41V81.63C131.37 82.2167 131.113 82.73 130.6 83.17C130.16 83.5367 129.647 83.72 129.06 83.72H114.21C113.257 83.72 112.523 83.5367 112.01 83.17C111.497 82.73 111.057 81.96 110.69 80.86C109.663 77.12 108.05 74.5167 105.85 73.05C103.65 71.51 100.753 70.74 97.16 70.74C88.5067 70.74 84.0333 75.58 83.74 85.26C83.6667 87.24 83.63 90.2833 83.63 94.39C83.63 98.4967 83.6667 101.613 83.74 103.74C84.0333 113.42 88.5067 118.26 97.16 118.26C100.753 118.26 103.687 117.49 105.96 115.95C108.233 114.337 109.81 111.733 110.69 108.14C110.983 107.04 111.387 106.307 111.9 105.94C112.413 105.5 113.183 105.28 114.21 105.28H129.06C129.72 105.28 130.27 105.5 130.71 105.94C131.223 106.38 131.443 106.93 131.37 107.59C131.297 112.943 129.757 117.637 126.75 121.67C123.817 125.63 119.783 128.71 114.65 130.91C109.517 133.037 103.723 134.1 97.27 134.1Z" fill="white"/>
<path d="M171.27 218.1C160.783 218.1 152.57 215.57 146.63 210.51C140.763 205.377 137.647 197.97 137.28 188.29C137.207 186.31 137.17 183.083 137.17 178.61C137.17 174.063 137.207 170.763 137.28 168.71C137.647 159.177 140.837 151.843 146.85 146.71C152.863 141.503 161.003 138.9 171.27 138.9C177.723 138.9 183.517 140 188.65 142.2C193.783 144.327 197.817 147.407 200.75 151.44C203.757 155.4 205.297 160.057 205.37 165.41V165.63C205.37 166.217 205.113 166.73 204.6 167.17C204.16 167.537 203.647 167.72 203.06 167.72H188.21C187.257 167.72 186.523 167.537 186.01 167.17C185.497 166.73 185.057 165.96 184.69 164.86C183.663 161.12 182.05 158.517 179.85 157.05C177.65 155.51 174.753 154.74 171.16 154.74C162.507 154.74 158.033 159.58 157.74 169.26C157.667 171.24 157.63 174.283 157.63 178.39C157.63 182.497 157.667 185.613 157.74 187.74C158.033 197.42 162.507 202.26 171.16 202.26C174.753 202.26 177.687 201.49 179.96 199.95C182.233 198.337 183.81 195.733 184.69 192.14C184.983 191.04 185.387 190.307 185.9 189.94C186.413 189.5 187.183 189.28 188.21 189.28H203.06C203.72 189.28 204.27 189.5 204.71 189.94C205.223 190.38 205.443 190.93 205.37 191.59C205.297 196.943 203.757 201.637 200.75 205.67C197.817 209.63 193.783 212.71 188.65 214.91C183.517 217.037 177.723 218.1 171.27 218.1Z" fill="white"/>
</svg>
