<svg width="270" height="266" viewBox="0 0 270 266" fill="none" xmlns="http://www.w3.org/2000/svg">
<rect width="270" height="266" fill="#E5E5E5"/>
<path d="M135 259C205.692 259 263 202.588 263 133C263 63.4121 205.692 7 135 7C64.3075 7 7 63.4121 7 133C7 202.588 64.3075 259 135 259Z" fill="white" stroke="black" stroke-width="14"/>
<path d="M96.28 134.1C86.16 134.1 78.3133 131.497 72.74 126.29C67.24 121.083 64.3067 113.75 63.94 104.29C63.8667 102.31 63.83 99.0833 63.83 94.61C63.83 90.0633 63.8667 86.7633 63.94 84.71C64.3067 75.3233 67.2767 68.0267 72.85 62.82C78.4967 57.54 86.3067 54.9 96.28 54.9C102.807 54.9 108.49 56.0367 113.33 58.31C118.17 60.51 121.91 63.5533 124.55 67.44C127.19 71.2533 128.583 75.58 128.73 80.42V80.64C128.73 81.2267 128.473 81.74 127.96 82.18C127.52 82.5467 127.007 82.73 126.42 82.73H115.97C115.09 82.73 114.43 82.5467 113.99 82.18C113.55 81.8133 113.183 81.1167 112.89 80.09C111.717 75.47 109.773 72.2433 107.06 70.41C104.347 68.5033 100.717 67.55 96.17 67.55C85.61 67.55 80.11 73.4533 79.67 85.26C79.5967 87.24 79.56 90.2833 79.56 94.39C79.56 98.4967 79.5967 101.613 79.67 103.74C80.11 115.547 85.61 121.45 96.17 121.45C100.717 121.45 104.347 120.497 107.06 118.59C109.847 116.683 111.79 113.457 112.89 108.91C113.11 107.883 113.44 107.187 113.88 106.82C114.393 106.453 115.09 106.27 115.97 106.27H126.42C127.08 106.27 127.63 106.49 128.07 106.93C128.583 107.37 128.803 107.92 128.73 108.58C128.583 113.42 127.19 117.783 124.55 121.67C121.91 125.483 118.17 128.527 113.33 130.8C108.49 133 102.807 134.1 96.28 134.1Z" fill="black"/>
<path d="M173.28 221.1C163.16 221.1 155.313 218.497 149.74 213.29C144.24 208.083 141.307 200.75 140.94 191.29C140.867 189.31 140.83 186.083 140.83 181.61C140.83 177.063 140.867 173.763 140.94 171.71C141.307 162.323 144.277 155.027 149.85 149.82C155.497 144.54 163.307 141.9 173.28 141.9C179.807 141.9 185.49 143.037 190.33 145.31C195.17 147.51 198.91 150.553 201.55 154.44C204.19 158.253 205.583 162.58 205.73 167.42V167.64C205.73 168.227 205.473 168.74 204.96 169.18C204.52 169.547 204.007 169.73 203.42 169.73H192.97C192.09 169.73 191.43 169.547 190.99 169.18C190.55 168.813 190.183 168.117 189.89 167.09C188.717 162.47 186.773 159.243 184.06 157.41C181.347 155.503 177.717 154.55 173.17 154.55C162.61 154.55 157.11 160.453 156.67 172.26C156.597 174.24 156.56 177.283 156.56 181.39C156.56 185.497 156.597 188.613 156.67 190.74C157.11 202.547 162.61 208.45 173.17 208.45C177.717 208.45 181.347 207.497 184.06 205.59C186.847 203.683 188.79 200.457 189.89 195.91C190.11 194.883 190.44 194.187 190.88 193.82C191.393 193.453 192.09 193.27 192.97 193.27H203.42C204.08 193.27 204.63 193.49 205.07 193.93C205.583 194.37 205.803 194.92 205.73 195.58C205.583 200.42 204.19 204.783 201.55 208.67C198.91 212.483 195.17 215.527 190.33 217.8C185.49 220 179.807 221.1 173.28 221.1Z" fill="black"/>
</svg>
