<svg width="225" height="162" viewBox="0 0 225 162" fill="none" xmlns="http://www.w3.org/2000/svg">
<g style="mix-blend-mode:color-burn">
<path fill-rule="evenodd" clip-rule="evenodd" d="M10 0C4.47715 0 0 4.4677 0 9.99055V129.124C0 133.278 2.54283 136.975 6.47381 138.319C35.8434 148.363 157.863 185.827 221.28 138.924C223.681 137.149 225 134.289 225 131.303V10C225 4.47715 220.523 0 215 0H10ZM71.4453 39.2092C68.854 40.0236 66.3954 41.1033 64.0695 42.4484C61.4002 44.0109 58.9588 45.8989 56.7453 48.1125C54.5318 50.326 52.6275 52.7674 51.0324 55.4367C49.4699 58.106 48.2492 60.9868 47.3703 64.0793C46.5239 67.1717 46.1008 70.3781 46.1008 73.6984C46.1008 77.0187 46.5239 80.2251 47.3703 83.3176C48.2492 86.3775 49.4699 89.2583 51.0324 91.9601C52.6275 94.6294 54.5318 97.0708 56.7453 99.2844C58.9588 101.498 61.4002 103.402 64.0695 104.997C66.7713 106.56 69.6522 107.764 72.7121 108.611C75.8045 109.489 79.0109 109.929 82.3312 109.929C85.6516 109.929 88.8579 109.489 91.9504 108.611C95.0428 107.764 97.9237 106.56 100.593 104.997C103.262 103.402 105.704 101.498 107.917 99.2844C109.864 97.3378 111.559 95.215 113.002 92.9159L103.495 80.6296C103.302 81.2078 103.083 81.7783 102.839 82.341C101.667 85.0103 100.072 87.354 98.0539 89.3723C96.0682 91.3905 93.7082 92.9855 90.9738 94.1574C88.272 95.3293 85.3911 95.9152 82.3312 95.9152C79.2388 95.9152 76.3417 95.3293 73.6398 94.1574C70.938 92.9855 68.578 91.3905 66.5598 89.3723C64.5415 87.354 62.9465 85.0103 61.7746 82.341C60.6027 79.6392 60.0168 76.7583 60.0168 73.6984C60.0168 70.6385 60.6027 67.7577 61.7746 65.0558C62.9465 62.3215 64.5415 59.9614 66.5598 57.9758C68.578 55.9575 70.938 54.3625 73.6398 53.1906C75.9311 52.1968 78.3628 51.6244 80.9349 51.4734L71.4453 39.2092ZM167.582 108.713C167.705 108.679 167.828 108.645 167.95 108.611C171.043 107.764 173.924 106.56 176.593 104.997C179.262 103.402 181.704 101.498 183.917 99.2844C186.131 97.0708 188.019 94.6294 189.581 91.9601C191.144 89.2583 192.348 86.3775 193.195 83.3176C194.073 80.2251 194.513 77.0187 194.513 73.6984C194.513 70.3781 194.073 67.1717 193.195 64.0793C192.348 60.9868 191.144 58.106 189.581 55.4367C188.019 52.7674 186.131 50.326 183.917 48.1125C181.704 45.8989 179.262 44.0109 176.593 42.4484C173.924 40.8859 171.043 39.6815 167.95 38.8351C164.858 37.9562 161.652 37.5168 158.331 37.5168C155.011 37.5168 151.805 37.9562 148.712 38.8351C145.652 39.6815 142.771 40.8859 140.07 42.4484C137.4 44.0109 134.959 45.8989 132.745 48.1125C130.532 50.326 128.627 52.7674 127.032 55.4367C126.935 55.6024 126.84 55.7688 126.745 55.9361L136.585 68.6526C136.873 67.4204 137.269 66.2215 137.775 65.0558C138.946 62.3215 140.542 59.9614 142.56 57.9758C144.578 55.9575 146.938 54.3625 149.64 53.1906C152.342 52.0187 155.239 51.4328 158.331 51.4328C161.391 51.4328 164.272 52.0187 166.974 53.1906C169.708 54.3625 172.068 55.9575 174.054 57.9758C176.072 59.9614 177.667 62.3215 178.839 65.0558C180.011 67.7577 180.597 70.6385 180.597 73.6984C180.597 76.7583 180.011 79.6392 178.839 82.341C177.667 85.0103 176.072 87.354 174.054 89.3723C172.068 91.3905 169.708 92.9855 166.974 94.1574C164.272 95.3293 161.391 95.9152 158.331 95.9152C158.111 95.9152 157.891 95.9122 157.673 95.9063L167.582 108.713Z" fill="#ABBEC8" fill-opacity="0.88"/>
</g>
<g fill="#A1B0B8" fill-opacity="0.83">
<path d="M70.6982 38.2437C85.3309 26.9215 106.371 29.6051 117.694 44.2377L168.15 109.446C153.517 120.769 132.477 118.085 121.154 103.452L70.6982 38.2437Z" />
</g>
<!-- <defs>
<filter id="filter0_b" x="66.6982" y="27.2368" width="105.452" height="93.2164" filterUnits="userSpaceOnUse" color-interpolation-filters="sRGB">
<feFlood flood-opacity="0" result="BackgroundImageFix"/>
<feGaussianBlur in="BackgroundImage" stdDeviation="2"/>
<feComposite in2="SourceAlpha" operator="in" result="effect1_backgroundBlur"/>
<feBlend mode="normal" in="SourceGraphic" in2="effect1_backgroundBlur" result="shape"/>
</filter>
</defs> -->
</svg>
