<svg width="226" height="163" viewBox="0 0 226 163" fill="none" xmlns="http://www.w3.org/2000/svg">
<g fill="#48606A">
<path d="M71 39.5007C85.6326 28.1785 106.673 30.8621 117.995 45.4947L168.452 110.703C153.819 122.026 132.778 119.342 121.456 104.709L71 39.5007Z" />
</g>
<path fill-rule="evenodd" clip-rule="evenodd" d="M0.301697 10.2476C0.301697 4.72472 4.77885 0.257019 10.3017 0.257019H215.302C220.825 0.257019 225.302 4.73417 225.302 10.257V131.56C225.302 134.546 223.982 137.406 221.581 139.181C158.164 186.084 36.1451 148.62 6.77551 138.576C2.84453 137.232 0.301697 133.535 0.301697 129.381V10.2476ZM64.3712 43.7055C66.6972 42.3604 69.1558 41.2806 71.7471 40.4662L71 39.5007C85.6326 28.1785 106.673 30.8621 117.995 45.4947L127.047 57.1931C127.142 57.0258 127.237 56.8594 127.334 56.6938C128.929 54.0245 130.833 51.5831 133.047 49.3695C135.261 47.156 137.702 45.268 140.371 43.7055C143.073 42.143 145.954 40.9385 149.014 40.0922C152.106 39.2133 155.313 38.7738 158.633 38.7738C161.953 38.7738 165.16 39.2133 168.252 40.0922C171.345 40.9385 174.225 42.143 176.895 43.7055C179.564 45.268 182.005 47.156 184.219 49.3695C186.432 51.5831 188.32 54.0245 189.883 56.6938C191.445 59.363 192.65 62.2439 193.496 65.3363C194.375 68.4288 194.815 71.6352 194.815 74.9555C194.815 78.2758 194.375 81.4822 193.496 84.5746C192.65 87.6345 191.445 90.5154 189.883 93.2172C188.32 95.8865 186.432 98.3279 184.219 100.541C182.005 102.755 179.564 104.659 176.895 106.254C174.225 107.817 171.345 109.021 168.252 109.868C168.13 109.902 168.007 109.937 167.884 109.97L168.452 110.703C153.819 122.026 132.778 119.342 121.456 104.709L113.303 94.173C111.86 96.472 110.165 98.5948 108.219 100.541C106.005 102.755 103.564 104.659 100.895 106.254C98.2254 107.817 95.3446 109.021 92.2521 109.868C89.1597 110.746 85.9533 111.186 82.633 111.186C79.3127 111.186 76.1063 110.746 73.0138 109.868C69.9539 109.021 67.0731 107.817 64.3712 106.254C61.702 104.659 59.2606 102.755 57.047 100.541C54.8335 98.3279 52.9292 95.8865 51.3341 93.2172C49.7716 90.5154 48.5509 87.6345 47.672 84.5746C46.8257 81.4822 46.4025 78.2758 46.4025 74.9555C46.4025 71.6352 46.8257 68.4288 47.672 65.3363C48.5509 62.2439 49.7716 59.363 51.3341 56.6938C52.9292 54.0245 54.8335 51.5831 57.047 49.3695C59.2606 47.156 61.702 45.268 64.3712 43.7055ZM73.9416 54.4477C76.2328 53.4539 78.6645 52.8815 81.2367 52.7304L103.797 81.8866C103.603 82.4649 103.385 83.0353 103.141 83.5981C101.969 86.2673 100.374 88.6111 98.3556 90.6293C96.3699 92.6475 94.0099 94.2426 91.2755 95.4145C88.5737 96.5863 85.6929 97.1723 82.633 97.1723C79.5405 97.1723 76.6434 96.5863 73.9416 95.4145C71.2397 94.2426 68.8797 92.6475 66.8615 90.6293C64.8433 88.6111 63.2482 86.2673 62.0763 83.5981C60.9044 80.8962 60.3185 78.0154 60.3185 74.9555C60.3185 71.8956 60.9044 69.0147 62.0763 66.3129C63.2482 63.5785 64.8433 61.2185 66.8615 59.2328C68.8797 57.2146 71.2397 55.6195 73.9416 54.4477ZM136.887 69.9096L157.975 97.1633C158.193 97.1693 158.413 97.1723 158.633 97.1723C161.693 97.1723 164.574 96.5863 167.276 95.4145C170.01 94.2426 172.37 92.6475 174.356 90.6293C176.374 88.6111 177.969 86.2673 179.141 83.5981C180.313 80.8962 180.899 78.0154 180.899 74.9555C180.899 71.8956 180.313 69.0147 179.141 66.3129C177.969 63.5785 176.374 61.2185 174.356 59.2328C172.37 57.2146 170.01 55.6195 167.276 54.4477C164.574 53.2758 161.693 52.6898 158.633 52.6898C155.541 52.6898 152.643 53.2758 149.942 54.4477C147.24 55.6195 144.88 57.2146 142.861 59.2328C140.843 61.2185 139.248 63.5785 138.076 66.3129C137.571 67.4785 137.174 68.6774 136.887 69.9096Z" fill="#032333" fill-opacity="0.9"/>
<defs>
<filter id="filter0_b" x="67" y="28.4938" width="105.452" height="93.2164" filterUnits="userSpaceOnUse" color-interpolation-filters="sRGB">
<feFlood flood-opacity="0" result="BackgroundImageFix"/>
<feGaussianBlur in="BackgroundImage" stdDeviation="2"/>
<feComposite in2="SourceAlpha" operator="in" result="effect1_backgroundBlur"/>
<feBlend mode="normal" in="SourceGraphic" in2="effect1_backgroundBlur" result="shape"/>
</filter>
</defs>
</svg>
