<svg width="231" height="184" viewBox="0 0 231 184" fill="none" xmlns="http://www.w3.org/2000/svg">
<g opacity="0.8">
<g style="mix-blend-mode:color-burn">
<path d="M5.47533e-07 9.99055C6.16695e-07 4.4677 4.47715 0 10 0H215C220.523 0 225 4.47715 225 10V131.303C225 134.289 223.681 137.149 221.28 138.924C157.863 185.827 35.8434 148.363 6.47381 138.319C2.54283 136.975 5.43776e-07 133.278 4.23962e-07 129.124C-4.42608e-07 99.0758 2.37559e-07 34.7431 5.47533e-07 9.99055Z" fill="#032333" fill-opacity="0.88"/>
</g>
<path d="M118.513 74.6985C118.513 78.0188 118.073 81.2251 117.195 84.3176C116.348 87.3775 115.144 90.2584 113.581 92.9602C112.019 95.6294 110.131 98.0709 107.917 100.284C105.704 102.498 103.262 104.402 100.593 105.997C97.9237 107.56 95.0429 108.764 91.9504 109.611C88.858 110.489 85.6516 110.929 82.3313 110.929C79.011 110.929 75.8046 110.489 72.7121 109.611C69.6522 108.764 66.7714 107.56 64.0695 105.997C61.4003 104.402 58.9589 102.498 56.7453 100.284C54.5318 98.0709 52.6275 95.6294 51.0324 92.9602C49.4699 90.2584 48.2492 87.3775 47.3703 84.3176C46.524 81.2251 46.1008 78.0188 46.1008 74.6985C46.1008 71.3781 46.524 68.1718 47.3703 65.0793C48.2492 61.9869 49.4699 59.106 51.0324 56.4367C52.6275 53.7675 54.5318 51.3261 56.7453 49.1125C58.9589 46.899 61.4003 45.011 64.0695 43.4485C66.7714 41.886 69.6522 40.6815 72.7121 39.8352C75.8046 38.9563 79.011 38.5168 82.3313 38.5168C85.6516 38.5168 88.858 38.9563 91.9504 39.8352C95.0429 40.6815 97.9237 41.886 100.593 43.4485C103.262 45.011 105.704 46.899 107.917 49.1125C110.131 51.3261 112.019 53.7675 113.581 56.4367C115.144 59.106 116.348 61.9869 117.195 65.0793C118.073 68.1718 118.513 71.3781 118.513 74.6985ZM104.597 74.6985C104.597 71.6386 104.011 68.7577 102.839 66.0559C101.667 63.3215 100.072 60.9615 98.0539 58.9758C96.0682 56.9576 93.7082 55.3625 90.9738 54.1906C88.272 53.0188 85.3912 52.4328 82.3313 52.4328C79.2388 52.4328 76.3417 53.0188 73.6399 54.1906C70.938 55.3625 68.578 56.9576 66.5598 58.9758C64.5416 60.9615 62.9465 63.3215 61.7746 66.0559C60.6028 68.7577 60.0168 71.6386 60.0168 74.6985C60.0168 77.7584 60.6028 80.6392 61.7746 83.341C62.9465 86.0103 64.5416 88.3541 66.5598 90.3723C68.578 92.3905 70.938 93.9856 73.6399 95.1574C76.3417 96.3293 79.2388 96.9153 82.3313 96.9153C85.3912 96.9153 88.272 96.3293 90.9738 95.1574C93.7082 93.9856 96.0682 92.3905 98.0539 90.3723C100.072 88.3541 101.667 86.0103 102.839 83.341C104.011 80.6392 104.597 77.7584 104.597 74.6985Z" fill="white" fill-opacity="0.8"/>
<path d="M194.513 74.6985C194.513 78.0188 194.073 81.2251 193.195 84.3176C192.348 87.3775 191.144 90.2584 189.581 92.9602C188.019 95.6294 186.131 98.0709 183.917 100.284C181.704 102.498 179.262 104.402 176.593 105.997C173.924 107.56 171.043 108.764 167.95 109.611C164.858 110.489 161.652 110.929 158.331 110.929C155.011 110.929 151.805 110.489 148.712 109.611C145.652 108.764 142.771 107.56 140.07 105.997C137.4 104.402 134.959 102.498 132.745 100.284C130.532 98.0709 128.627 95.6294 127.032 92.9602C125.47 90.2584 124.249 87.3775 123.37 84.3176C122.524 81.2251 122.101 78.0188 122.101 74.6985C122.101 71.3781 122.524 68.1718 123.37 65.0793C124.249 61.9869 125.47 59.106 127.032 56.4367C128.627 53.7675 130.532 51.3261 132.745 49.1125C134.959 46.899 137.4 45.011 140.07 43.4485C142.771 41.886 145.652 40.6815 148.712 39.8352C151.805 38.9563 155.011 38.5168 158.331 38.5168C161.652 38.5168 164.858 38.9563 167.95 39.8352C171.043 40.6815 173.924 41.886 176.593 43.4485C179.262 45.011 181.704 46.899 183.917 49.1125C186.131 51.3261 188.019 53.7675 189.581 56.4367C191.144 59.106 192.348 61.9869 193.195 65.0793C194.073 68.1718 194.513 71.3781 194.513 74.6985ZM180.597 74.6985C180.597 71.6386 180.011 68.7577 178.839 66.0559C177.667 63.3215 176.072 60.9615 174.054 58.9758C172.068 56.9576 169.708 55.3625 166.974 54.1906C164.272 53.0188 161.391 52.4328 158.331 52.4328C155.239 52.4328 152.342 53.0188 149.64 54.1906C146.938 55.3625 144.578 56.9576 142.56 58.9758C140.542 60.9615 138.947 63.3215 137.775 66.0559C136.603 68.7577 136.017 71.6386 136.017 74.6985C136.017 77.7584 136.603 80.6392 137.775 83.341C138.947 86.0103 140.542 88.3541 142.56 90.3723C144.578 92.3905 146.938 93.9856 149.64 95.1574C152.342 96.3293 155.239 96.9153 158.331 96.9153C161.391 96.9153 164.272 96.3293 166.974 95.1574C169.708 93.9856 172.068 92.3905 174.054 90.3723C176.072 88.3541 177.667 86.0103 178.839 83.341C180.011 80.6392 180.597 77.7584 180.597 74.6985Z" fill="white" fill-opacity="0.8"/>
<g fill="#223B45" fill-opacity="0.97">
<path d="M70.6983 39.2437C85.3309 27.9215 106.372 30.6051 117.694 45.2377L168.15 110.446C153.517 121.769 132.477 119.085 121.155 104.452L70.6983 39.2437Z" />
</g>
</g>
<g opacity="0.8">
<g style="mix-blend-mode:color-burn">
<path d="M6 14.9905C6 9.4677 10.4772 5 16 5H221C226.523 5 231 9.47715 231 15V136.303C231 139.289 229.681 142.149 227.28 143.924C163.863 190.827 41.8434 153.363 12.4738 143.319C8.54283 141.975 6 138.278 6 134.124C6 104.076 6 39.7431 6 14.9905Z" fill="#032333" fill-opacity="0.88"/>
</g>
<path d="M124.513 79.6985C124.513 83.0188 124.073 86.2251 123.195 89.3176C122.348 92.3775 121.144 95.2584 119.581 97.9602C118.019 100.629 116.131 103.071 113.917 105.284C111.704 107.498 109.262 109.402 106.593 110.997C103.924 112.56 101.043 113.764 97.9504 114.611C94.858 115.489 91.6516 115.929 88.3313 115.929C85.011 115.929 81.8046 115.489 78.7121 114.611C75.6522 113.764 72.7714 112.56 70.0695 110.997C67.4003 109.402 64.9589 107.498 62.7453 105.284C60.5318 103.071 58.6275 100.629 57.0324 97.9602C55.4699 95.2584 54.2492 92.3775 53.3703 89.3176C52.524 86.2251 52.1008 83.0188 52.1008 79.6985C52.1008 76.3781 52.524 73.1718 53.3703 70.0793C54.2492 66.9869 55.4699 64.106 57.0324 61.4367C58.6275 58.7675 60.5318 56.3261 62.7453 54.1125C64.9589 51.899 67.4003 50.011 70.0695 48.4485C72.7714 46.886 75.6522 45.6815 78.7121 44.8352C81.8046 43.9563 85.011 43.5168 88.3313 43.5168C91.6516 43.5168 94.858 43.9563 97.9504 44.8352C101.043 45.6815 103.924 46.886 106.593 48.4485C109.262 50.011 111.704 51.899 113.917 54.1125C116.131 56.3261 118.019 58.7675 119.581 61.4367C121.144 64.106 122.348 66.9869 123.195 70.0793C124.073 73.1718 124.513 76.3781 124.513 79.6985ZM110.597 79.6985C110.597 76.6386 110.011 73.7577 108.839 71.0559C107.667 68.3215 106.072 65.9615 104.054 63.9758C102.068 61.9576 99.7082 60.3625 96.9738 59.1906C94.272 58.0188 91.3912 57.4328 88.3313 57.4328C85.2388 57.4328 82.3417 58.0188 79.6399 59.1906C76.938 60.3625 74.578 61.9576 72.5598 63.9758C70.5416 65.9615 68.9465 68.3215 67.7746 71.0559C66.6028 73.7577 66.0168 76.6386 66.0168 79.6985C66.0168 82.7584 66.6028 85.6392 67.7746 88.341C68.9465 91.0103 70.5416 93.3541 72.5598 95.3723C74.578 97.3905 76.938 98.9856 79.6399 100.157C82.3417 101.329 85.2388 101.915 88.3313 101.915C91.3912 101.915 94.272 101.329 96.9738 100.157C99.7082 98.9856 102.068 97.3905 104.054 95.3723C106.072 93.3541 107.667 91.0103 108.839 88.341C110.011 85.6392 110.597 82.7584 110.597 79.6985Z" fill="white" fill-opacity="0.8"/>
<path d="M200.513 79.6985C200.513 83.0188 200.073 86.2251 199.195 89.3176C198.348 92.3775 197.144 95.2584 195.581 97.9602C194.019 100.629 192.131 103.071 189.917 105.284C187.704 107.498 185.262 109.402 182.593 110.997C179.924 112.56 177.043 113.764 173.95 114.611C170.858 115.489 167.652 115.929 164.331 115.929C161.011 115.929 157.805 115.489 154.712 114.611C151.652 113.764 148.771 112.56 146.07 110.997C143.4 109.402 140.959 107.498 138.745 105.284C136.532 103.071 134.627 100.629 133.032 97.9602C131.47 95.2584 130.249 92.3775 129.37 89.3176C128.524 86.2251 128.101 83.0188 128.101 79.6985C128.101 76.3781 128.524 73.1718 129.37 70.0793C130.249 66.9869 131.47 64.106 133.032 61.4367C134.627 58.7675 136.532 56.3261 138.745 54.1125C140.959 51.899 143.4 50.011 146.07 48.4485C148.771 46.886 151.652 45.6815 154.712 44.8352C157.805 43.9563 161.011 43.5168 164.331 43.5168C167.652 43.5168 170.858 43.9563 173.95 44.8352C177.043 45.6815 179.924 46.886 182.593 48.4485C185.262 50.011 187.704 51.899 189.917 54.1125C192.131 56.3261 194.019 58.7675 195.581 61.4367C197.144 64.106 198.348 66.9869 199.195 70.0793C200.073 73.1718 200.513 76.3781 200.513 79.6985ZM186.597 79.6985C186.597 76.6386 186.011 73.7577 184.839 71.0559C183.667 68.3215 182.072 65.9615 180.054 63.9758C178.068 61.9576 175.708 60.3625 172.974 59.1906C170.272 58.0188 167.391 57.4328 164.331 57.4328C161.239 57.4328 158.342 58.0188 155.64 59.1906C152.938 60.3625 150.578 61.9576 148.56 63.9758C146.542 65.9615 144.947 68.3215 143.775 71.0559C142.603 73.7577 142.017 76.6386 142.017 79.6985C142.017 82.7584 142.603 85.6392 143.775 88.341C144.947 91.0103 146.542 93.3541 148.56 95.3723C150.578 97.3905 152.938 98.9856 155.64 100.157C158.342 101.329 161.239 101.915 164.331 101.915C167.391 101.915 170.272 101.329 172.974 100.157C175.708 98.9856 178.068 97.3905 180.054 95.3723C182.072 93.3541 183.667 91.0103 184.839 88.341C186.011 85.6392 186.597 82.7584 186.597 79.6985Z" fill="white" fill-opacity="0.8"/>
<g fill="#223B45" fill-opacity="0.97">
<path d="M76.6983 44.2437C91.3309 32.9215 112.372 35.6051 123.694 50.2377L174.15 115.446C159.517 126.769 138.477 124.085 127.155 109.452L76.6983 44.2437Z" />
</g>
</g>
<defs>
<filter id="filter0_b" x="66.6983" y="14.743" width="105.452" height="120.204" filterUnits="userSpaceOnUse" color-interpolation-filters="sRGB">
<feFlood flood-opacity="0" result="BackgroundImageFix"/>
<feGaussianBlur in="BackgroundImage" stdDeviation="2"/>
<feComposite in2="SourceAlpha" operator="in" result="effect1_backgroundBlur"/>
<feBlend mode="normal" in="SourceGraphic" in2="effect1_backgroundBlur" result="shape"/>
</filter>
<filter id="filter1_b" x="72.6983" y="19.743" width="105.452" height="120.204" filterUnits="userSpaceOnUse" color-interpolation-filters="sRGB">
<feFlood flood-opacity="0" result="BackgroundImageFix"/>
<feGaussianBlur in="BackgroundImage" stdDeviation="2"/>
<feComposite in2="SourceAlpha" operator="in" result="effect1_backgroundBlur"/>
<feBlend mode="normal" in="SourceGraphic" in2="effect1_backgroundBlur" result="shape"/>
</filter>
</defs>
</svg>
