<svg width="270" height="266" viewBox="0 0 270 266" fill="none" xmlns="http://www.w3.org/2000/svg">
<path d="M135 259C205.692 259 263 202.588 263 133C263 63.4121 205.692 7 135 7C64.3075 7 7 63.4121 7 133C7 202.588 64.3075 259 135 259Z" stroke="black" stroke-width="14"/>
<path d="M96.28 134.1C86.16 134.1 78.3133 131.497 72.74 126.29C67.24 121.083 64.3067 113.75 63.94 104.29C63.8667 102.31 63.83 99.0833 63.83 94.61C63.83 90.0633 63.8667 86.7633 63.94 84.71C64.3067 75.3233 67.2767 68.0267 72.85 62.82C78.4967 57.54 86.3067 54.9 96.28 54.9C102.807 54.9 108.49 56.0367 113.33 58.31C118.17 60.51 121.91 63.5533 124.55 67.44C127.19 71.2533 128.583 75.58 128.73 80.42V80.64C128.73 81.2267 128.473 81.74 127.96 82.18C127.52 82.5467 127.007 82.73 126.42 82.73H115.97C115.09 82.73 114.43 82.5467 113.99 82.18C113.55 81.8133 113.183 81.1167 112.89 80.09C111.717 75.47 109.773 72.2433 107.06 70.41C104.347 68.5033 100.717 67.55 96.17 67.55C85.61 67.55 80.11 73.4533 79.67 85.26C79.5967 87.24 79.56 90.2833 79.56 94.39C79.56 98.4967 79.5967 101.613 79.67 103.74C80.11 115.547 85.61 121.45 96.17 121.45C100.717 121.45 104.347 120.497 107.06 118.59C109.847 116.683 111.79 113.457 112.89 108.91C113.11 107.883 113.44 107.187 113.88 106.82C114.393 106.453 115.09 106.27 115.97 106.27H126.42C127.08 106.27 127.63 106.49 128.07 106.93C128.583 107.37 128.803 107.92 128.73 108.58C128.583 113.42 127.19 117.783 124.55 121.67C121.91 125.483 118.17 128.527 113.33 130.8C108.49 133 102.807 134.1 96.28 134.1Z" fill="black"/>
<path d="M170.28 218.1C160.16 218.1 152.313 215.497 146.74 210.29C141.24 205.083 138.307 197.75 137.94 188.29C137.867 186.31 137.83 183.083 137.83 178.61C137.83 174.063 137.867 170.763 137.94 168.71C138.307 159.323 141.277 152.027 146.85 146.82C152.497 141.54 160.307 138.9 170.28 138.9C176.807 138.9 182.49 140.037 187.33 142.31C192.17 144.51 195.91 147.553 198.55 151.44C201.19 155.253 202.583 159.58 202.73 164.42V164.64C202.73 165.227 202.473 165.74 201.96 166.18C201.52 166.547 201.007 166.73 200.42 166.73H189.97C189.09 166.73 188.43 166.547 187.99 166.18C187.55 165.813 187.183 165.117 186.89 164.09C185.717 159.47 183.773 156.243 181.06 154.41C178.347 152.503 174.717 151.55 170.17 151.55C159.61 151.55 154.11 157.453 153.67 169.26C153.597 171.24 153.56 174.283 153.56 178.39C153.56 182.497 153.597 185.613 153.67 187.74C154.11 199.547 159.61 205.45 170.17 205.45C174.717 205.45 178.347 204.497 181.06 202.59C183.847 200.683 185.79 197.457 186.89 192.91C187.11 191.883 187.44 191.187 187.88 190.82C188.393 190.453 189.09 190.27 189.97 190.27H200.42C201.08 190.27 201.63 190.49 202.07 190.93C202.583 191.37 202.803 191.92 202.73 192.58C202.583 197.42 201.19 201.783 198.55 205.67C195.91 209.483 192.17 212.527 187.33 214.8C182.49 217 176.807 218.1 170.28 218.1Z" fill="black"/>
</svg>
